# xmcd CD database file
#
# Track frame offsets:
#	150
#	11678
#	24043
#	38513
#	49655
#	68938
#	82983
#	95870
#	108830
#	130103
#	144390
#	159863
#	171048
#	187638
#	197103
#	212648
#	227900
#	245105
#	259085
#	286403
#	305118
#
# Disc length: 4237 seconds
#
# Revision: 3
# Processed by: cddbd v1.5.1PL0 Copyright (c) Steve Scherf et al.
# Submitted via: CDex 1.51
#
DISCID=18108b15
DTITLE=Burt Bacharach - A&M Gold Series - Burt Bacharach
DYEAR=1996
DGENRE=Pop
TTITLE0=Raindrops Keep Fallin' On My Head
TTITLE1=The Look Of Love
TTITLE2=I'll Never Fall In Love Again
TTITLE3=Do You Know The Way To San Jose
TTITLE4=What The World Needs Now Is Love
TTITLE5=Alfie
TTITLE6=Reach Out
TTITLE7=Promises, Promises
TTITLE8=This Guy's In Love With You
TTITLE9=(They Long To Be) Close To You
TTITLE10=Make It Aesy On Yourself
TTITLE11=I Say A Little Prayer
TTITLE12=The April Fools
TTITLE13=Bond Street
TTITLE14=Any Day Now
TTITLE15=Pacific Coast Highway
TTITLE16=A House Is Not A Home
TTITLE17=One Less Bell To Answer
TTITLE18=Wives and Lovers
TTITLE19=Living Together, Growing Together
TTITLE20=Knowing When To Leave
EXTD=YEAR: 1996
EXTT0=
EXTT1=
EXTT2=
EXTT3=
EXTT4=
EXTT5=
EXTT6=
EXTT7=
EXTT8=
EXTT9=
EXTT10=
EXTT11=
EXTT12=
EXTT13=
EXTT14=
EXTT15=
EXTT16=
EXTT17=
EXTT18=
EXTT19=
EXTT20=
PLAYORDER=
